<?xml version="1.0" encoding="UTF-8"?>
<svg xmlns="http://www.w3.org/2000/svg" xmlns:xlink="http://www.w3.org/1999/xlink" width="512pt" height="512pt" viewBox="0 0 512 512" version="1.1">
<g id="surface1">
<rect x="0" y="0" width="512" height="512" style="fill:rgb(8.627451%,10.196078%,11.372549%);fill-opacity:1;stroke:none;"/>
<path style="fill-rule:nonzero;fill:rgb(0%,0%,0%);fill-opacity:1;stroke-width:5;stroke-linecap:butt;stroke-linejoin:miter;stroke:rgb(96.862745%,85.098039%,41.176471%);stroke-opacity:1;stroke-miterlimit:4;" d="M 99.580383 41.395569 L 59.579468 101.387024 " transform="matrix(2.56,0,0,2.56,0,0)"/>
<path style="fill:none;stroke-width:5;stroke-linecap:butt;stroke-linejoin:miter;stroke:rgb(96.862745%,85.098039%,41.176471%);stroke-opacity:1;stroke-miterlimit:4;" d="M 100 39.99939 L 100 119.999695 " transform="matrix(2.56,0,0,2.56,0,0)"/>
<path style="fill-rule:nonzero;fill:rgb(0%,0%,0%);fill-opacity:1;stroke-width:5;stroke-linecap:butt;stroke-linejoin:miter;stroke:rgb(96.862745%,85.098039%,41.176471%);stroke-opacity:1;stroke-miterlimit:4;" d="M 100.456238 41.395569 L 140.423584 101.394653 " transform="matrix(2.56,0,0,2.56,0,0)"/>
<path style="fill:none;stroke-width:5;stroke-linecap:butt;stroke-linejoin:miter;stroke:rgb(96.862745%,85.098039%,41.176471%);stroke-opacity:1;stroke-miterlimit:4;" d="M 60.00061 100 L 60.00061 161.000061 " transform="matrix(2.56,0,0,2.56,0,0)"/>
<path style="fill:none;stroke-width:5;stroke-linecap:butt;stroke-linejoin:miter;stroke:rgb(96.862745%,85.098039%,41.176471%);stroke-opacity:1;stroke-miterlimit:4;" d="M 139.99939 100 L 139.99939 161.000061 " transform="matrix(2.56,0,0,2.56,0,0)"/>
<path style="fill-rule:nonzero;fill:rgb(0%,0%,0%);fill-opacity:1;stroke-width:5;stroke-linecap:butt;stroke-linejoin:miter;stroke:rgb(96.862745%,85.098039%,41.176471%);stroke-opacity:1;stroke-miterlimit:4;" d="M 60.743713 159.233093 L 100 119.999695 " transform="matrix(2.56,0,0,2.56,0,0)"/>
<path style="fill-rule:nonzero;fill:rgb(0%,0%,0%);fill-opacity:1;stroke-width:5;stroke-linecap:butt;stroke-linejoin:miter;stroke:rgb(96.862745%,85.098039%,41.176471%);stroke-opacity:1;stroke-miterlimit:4;" d="M 100 119.999695 L 139.277649 159.233093 " transform="matrix(2.56,0,0,2.56,0,0)"/>
</g>
</svg>
